<mxfile host="app.diagrams.net" modified="2023-10-09T14:14:03.919Z" agent="Mozilla/5.0 (Windows NT 10.0; Win64; x64) AppleWebKit/537.36 (KHTML, like Gecko) Chrome/117.0.0.0 Safari/537.36" etag="LXTGmURNarJPv1lSQ1kS" version="21.8.2" type="github">
  <diagram id="C5RBs43oDa-KdzZeNtuy" name="Page-1">
    <mxGraphModel dx="1580" dy="671" grid="1" gridSize="10" guides="1" tooltips="1" connect="1" arrows="1" fold="1" page="1" pageScale="1" pageWidth="827" pageHeight="1169" math="0" shadow="0">
      <root>
        <mxCell id="WIyWlLk6GJQsqaUBKTNV-0" />
        <mxCell id="WIyWlLk6GJQsqaUBKTNV-1" parent="WIyWlLk6GJQsqaUBKTNV-0" />
        <mxCell id="WIyWlLk6GJQsqaUBKTNV-4" value="Pembeli" style="rounded=0;html=1;jettySize=auto;orthogonalLoop=1;fontSize=11;endArrow=block;endFill=0;endSize=8;strokeWidth=1;shadow=0;labelBackgroundColor=none;edgeStyle=orthogonalEdgeStyle;" parent="WIyWlLk6GJQsqaUBKTNV-1" source="WIyWlLk6GJQsqaUBKTNV-6" target="WIyWlLk6GJQsqaUBKTNV-10" edge="1">
          <mxGeometry y="20" relative="1" as="geometry">
            <mxPoint as="offset" />
          </mxGeometry>
        </mxCell>
        <mxCell id="LoGF4QMkM_RMsMkj-VRh-5" value="" style="edgeStyle=orthogonalEdgeStyle;rounded=0;orthogonalLoop=1;jettySize=auto;html=1;entryX=0;entryY=0.5;entryDx=0;entryDy=0;entryPerimeter=0;" edge="1" parent="WIyWlLk6GJQsqaUBKTNV-1" source="WIyWlLk6GJQsqaUBKTNV-6" target="LoGF4QMkM_RMsMkj-VRh-9">
          <mxGeometry relative="1" as="geometry">
            <mxPoint x="360" y="195" as="targetPoint" />
          </mxGeometry>
        </mxCell>
        <mxCell id="LoGF4QMkM_RMsMkj-VRh-6" value="Admin" style="edgeLabel;html=1;align=center;verticalAlign=middle;resizable=0;points=[];" vertex="1" connectable="0" parent="LoGF4QMkM_RMsMkj-VRh-5">
          <mxGeometry x="-0.1889" y="2" relative="1" as="geometry">
            <mxPoint as="offset" />
          </mxGeometry>
        </mxCell>
        <mxCell id="WIyWlLk6GJQsqaUBKTNV-6" value="Input Admin, Pembeli atau Keluar" style="whiteSpace=wrap;html=1;shadow=0;fontFamily=Helvetica;fontSize=12;align=center;strokeWidth=2;spacing=6;spacingTop=-4;shape=parallelogram;perimeter=parallelogramPerimeter;rounded=1;arcSize=12;size=0.23;" parent="WIyWlLk6GJQsqaUBKTNV-1" vertex="1">
          <mxGeometry x="107.5" y="160" width="225" height="70" as="geometry" />
        </mxCell>
        <mxCell id="WIyWlLk6GJQsqaUBKTNV-8" value="" style="rounded=0;html=1;jettySize=auto;orthogonalLoop=1;fontSize=11;endArrow=block;endFill=0;endSize=8;strokeWidth=1;shadow=0;labelBackgroundColor=none;edgeStyle=orthogonalEdgeStyle;" parent="WIyWlLk6GJQsqaUBKTNV-1" source="WIyWlLk6GJQsqaUBKTNV-10" target="WIyWlLk6GJQsqaUBKTNV-11" edge="1">
          <mxGeometry x="0.3333" y="20" relative="1" as="geometry">
            <mxPoint as="offset" />
          </mxGeometry>
        </mxCell>
        <mxCell id="LoGF4QMkM_RMsMkj-VRh-70" value="Keluar" style="edgeLabel;html=1;align=center;verticalAlign=middle;resizable=0;points=[];" vertex="1" connectable="0" parent="WIyWlLk6GJQsqaUBKTNV-8">
          <mxGeometry x="-0.655" y="3" relative="1" as="geometry">
            <mxPoint as="offset" />
          </mxGeometry>
        </mxCell>
        <mxCell id="LoGF4QMkM_RMsMkj-VRh-72" value="" style="edgeStyle=orthogonalEdgeStyle;rounded=0;orthogonalLoop=1;jettySize=auto;html=1;" edge="1" parent="WIyWlLk6GJQsqaUBKTNV-1" source="WIyWlLk6GJQsqaUBKTNV-10" target="LoGF4QMkM_RMsMkj-VRh-71">
          <mxGeometry relative="1" as="geometry" />
        </mxCell>
        <mxCell id="LoGF4QMkM_RMsMkj-VRh-82" value="Opsi" style="edgeLabel;html=1;align=center;verticalAlign=middle;resizable=0;points=[];" vertex="1" connectable="0" parent="LoGF4QMkM_RMsMkj-VRh-72">
          <mxGeometry x="-0.4645" y="-1" relative="1" as="geometry">
            <mxPoint y="-1" as="offset" />
          </mxGeometry>
        </mxCell>
        <mxCell id="WIyWlLk6GJQsqaUBKTNV-10" value="Input Opsi atau Keluar" style="whiteSpace=wrap;html=1;shadow=0;fontFamily=Helvetica;fontSize=12;align=center;strokeWidth=2;spacing=6;spacingTop=-4;shape=parallelogram;perimeter=parallelogramPerimeter;rounded=1;arcSize=12;size=0.23;" parent="WIyWlLk6GJQsqaUBKTNV-1" vertex="1">
          <mxGeometry x="135" y="290" width="170" height="70" as="geometry" />
        </mxCell>
        <mxCell id="WIyWlLk6GJQsqaUBKTNV-11" value="Selesai" style="rounded=1;whiteSpace=wrap;html=1;fontSize=12;glass=0;strokeWidth=2;shadow=0;shape=mxgraph.flowchart.terminator;" parent="WIyWlLk6GJQsqaUBKTNV-1" vertex="1">
          <mxGeometry x="160" y="690" width="120" height="50" as="geometry" />
        </mxCell>
        <mxCell id="LoGF4QMkM_RMsMkj-VRh-3" value="" style="edgeStyle=orthogonalEdgeStyle;rounded=0;orthogonalLoop=1;jettySize=auto;html=1;" edge="1" parent="WIyWlLk6GJQsqaUBKTNV-1" source="LoGF4QMkM_RMsMkj-VRh-0" target="WIyWlLk6GJQsqaUBKTNV-6">
          <mxGeometry relative="1" as="geometry" />
        </mxCell>
        <mxCell id="LoGF4QMkM_RMsMkj-VRh-0" value="Mulai" style="strokeWidth=2;html=1;shape=mxgraph.flowchart.terminator;whiteSpace=wrap;" vertex="1" parent="WIyWlLk6GJQsqaUBKTNV-1">
          <mxGeometry x="170" y="40" width="100" height="60" as="geometry" />
        </mxCell>
        <mxCell id="LoGF4QMkM_RMsMkj-VRh-12" value="" style="edgeStyle=orthogonalEdgeStyle;rounded=0;orthogonalLoop=1;jettySize=auto;html=1;" edge="1" parent="WIyWlLk6GJQsqaUBKTNV-1" source="LoGF4QMkM_RMsMkj-VRh-9" target="LoGF4QMkM_RMsMkj-VRh-11">
          <mxGeometry relative="1" as="geometry" />
        </mxCell>
        <mxCell id="LoGF4QMkM_RMsMkj-VRh-14" value="Benar" style="edgeLabel;html=1;align=center;verticalAlign=middle;resizable=0;points=[];" vertex="1" connectable="0" parent="LoGF4QMkM_RMsMkj-VRh-12">
          <mxGeometry x="-0.1312" y="-1" relative="1" as="geometry">
            <mxPoint as="offset" />
          </mxGeometry>
        </mxCell>
        <mxCell id="LoGF4QMkM_RMsMkj-VRh-9" value="Verifikasi Nama Admin dan ID" style="strokeWidth=2;html=1;shape=label;whiteSpace=wrap;rounded=1;absoluteArcSize=1;arcSize=14;" vertex="1" parent="WIyWlLk6GJQsqaUBKTNV-1">
          <mxGeometry x="390" y="162.5" width="100" height="65" as="geometry" />
        </mxCell>
        <mxCell id="LoGF4QMkM_RMsMkj-VRh-41" value="" style="edgeStyle=orthogonalEdgeStyle;rounded=0;orthogonalLoop=1;jettySize=auto;html=1;" edge="1" parent="WIyWlLk6GJQsqaUBKTNV-1" source="LoGF4QMkM_RMsMkj-VRh-11" target="LoGF4QMkM_RMsMkj-VRh-40">
          <mxGeometry relative="1" as="geometry" />
        </mxCell>
        <mxCell id="LoGF4QMkM_RMsMkj-VRh-67" value="" style="edgeStyle=orthogonalEdgeStyle;rounded=0;orthogonalLoop=1;jettySize=auto;html=1;" edge="1" parent="WIyWlLk6GJQsqaUBKTNV-1" source="LoGF4QMkM_RMsMkj-VRh-11">
          <mxGeometry relative="1" as="geometry">
            <mxPoint x="220" y="640" as="targetPoint" />
            <Array as="points">
              <mxPoint x="650" y="640" />
            </Array>
          </mxGeometry>
        </mxCell>
        <mxCell id="LoGF4QMkM_RMsMkj-VRh-68" value="Keluar" style="edgeLabel;html=1;align=center;verticalAlign=middle;resizable=0;points=[];" vertex="1" connectable="0" parent="LoGF4QMkM_RMsMkj-VRh-67">
          <mxGeometry x="-0.8603" y="1" relative="1" as="geometry">
            <mxPoint as="offset" />
          </mxGeometry>
        </mxCell>
        <mxCell id="LoGF4QMkM_RMsMkj-VRh-11" value="Input opsi atau Keluar" style="strokeWidth=2;html=1;shape=parallelogram;whiteSpace=wrap;perimeter=parallelogramPerimeter;rounded=1;arcSize=12;size=0.23;" vertex="1" parent="WIyWlLk6GJQsqaUBKTNV-1">
          <mxGeometry x="540" y="157.5" width="180" height="75" as="geometry" />
        </mxCell>
        <mxCell id="LoGF4QMkM_RMsMkj-VRh-106" style="edgeStyle=orthogonalEdgeStyle;rounded=0;orthogonalLoop=1;jettySize=auto;html=1;exitX=1;exitY=0.5;exitDx=0;exitDy=0;" edge="1" parent="WIyWlLk6GJQsqaUBKTNV-1" source="LoGF4QMkM_RMsMkj-VRh-36">
          <mxGeometry relative="1" as="geometry">
            <mxPoint x="1070" y="270" as="targetPoint" />
          </mxGeometry>
        </mxCell>
        <mxCell id="LoGF4QMkM_RMsMkj-VRh-36" value="Tambah Item" style="shape=label;html=1;strokeWidth=2;whiteSpace=wrap;rounded=1;arcSize=14;size=0.23;absoluteArcSize=1;" vertex="1" parent="WIyWlLk6GJQsqaUBKTNV-1">
          <mxGeometry x="950" y="165" width="100" height="60" as="geometry" />
        </mxCell>
        <mxCell id="LoGF4QMkM_RMsMkj-VRh-109" value="" style="edgeStyle=orthogonalEdgeStyle;rounded=0;orthogonalLoop=1;jettySize=auto;html=1;" edge="1" parent="WIyWlLk6GJQsqaUBKTNV-1" source="LoGF4QMkM_RMsMkj-VRh-37" target="LoGF4QMkM_RMsMkj-VRh-108">
          <mxGeometry relative="1" as="geometry" />
        </mxCell>
        <mxCell id="LoGF4QMkM_RMsMkj-VRh-37" value="Tampilkan&lt;br&gt;Daftar" style="shape=label;html=1;strokeWidth=2;whiteSpace=wrap;rounded=1;arcSize=14;size=0.23;absoluteArcSize=1;" vertex="1" parent="WIyWlLk6GJQsqaUBKTNV-1">
          <mxGeometry x="1141" y="235" width="100" height="60" as="geometry" />
        </mxCell>
        <mxCell id="LoGF4QMkM_RMsMkj-VRh-105" style="edgeStyle=orthogonalEdgeStyle;rounded=0;orthogonalLoop=1;jettySize=auto;html=1;exitX=1;exitY=0.5;exitDx=0;exitDy=0;" edge="1" parent="WIyWlLk6GJQsqaUBKTNV-1" source="LoGF4QMkM_RMsMkj-VRh-38">
          <mxGeometry relative="1" as="geometry">
            <mxPoint x="1090" y="260" as="targetPoint" />
          </mxGeometry>
        </mxCell>
        <mxCell id="LoGF4QMkM_RMsMkj-VRh-38" value="Perbarui Item" style="shape=label;html=1;strokeWidth=2;whiteSpace=wrap;rounded=1;arcSize=14;size=0.23;absoluteArcSize=1;" vertex="1" parent="WIyWlLk6GJQsqaUBKTNV-1">
          <mxGeometry x="950" y="302.5" width="100" height="60" as="geometry" />
        </mxCell>
        <mxCell id="LoGF4QMkM_RMsMkj-VRh-107" style="edgeStyle=orthogonalEdgeStyle;rounded=0;orthogonalLoop=1;jettySize=auto;html=1;exitX=1;exitY=0.5;exitDx=0;exitDy=0;" edge="1" parent="WIyWlLk6GJQsqaUBKTNV-1" source="LoGF4QMkM_RMsMkj-VRh-39">
          <mxGeometry relative="1" as="geometry">
            <mxPoint x="1110" y="260" as="targetPoint" />
          </mxGeometry>
        </mxCell>
        <mxCell id="LoGF4QMkM_RMsMkj-VRh-39" value="Hapus Item" style="shape=label;html=1;strokeWidth=2;whiteSpace=wrap;rounded=1;arcSize=14;size=0.23;absoluteArcSize=1;" vertex="1" parent="WIyWlLk6GJQsqaUBKTNV-1">
          <mxGeometry x="950" y="372.5" width="100" height="60" as="geometry" />
        </mxCell>
        <mxCell id="LoGF4QMkM_RMsMkj-VRh-54" style="edgeStyle=orthogonalEdgeStyle;rounded=0;orthogonalLoop=1;jettySize=auto;html=1;exitX=1;exitY=0.5;exitDx=0;exitDy=0;entryX=0;entryY=0.5;entryDx=0;entryDy=0;" edge="1" parent="WIyWlLk6GJQsqaUBKTNV-1" source="LoGF4QMkM_RMsMkj-VRh-40" target="LoGF4QMkM_RMsMkj-VRh-36">
          <mxGeometry relative="1" as="geometry" />
        </mxCell>
        <mxCell id="LoGF4QMkM_RMsMkj-VRh-40" value="1" style="strokeWidth=2;html=1;shape=parallelogram;whiteSpace=wrap;perimeter=parallelogramPerimeter;rounded=1;arcSize=12;size=0.23;" vertex="1" parent="WIyWlLk6GJQsqaUBKTNV-1">
          <mxGeometry x="790" y="167.5" width="100" height="55" as="geometry" />
        </mxCell>
        <mxCell id="LoGF4QMkM_RMsMkj-VRh-55" style="edgeStyle=orthogonalEdgeStyle;rounded=0;orthogonalLoop=1;jettySize=auto;html=1;exitX=1;exitY=0.5;exitDx=0;exitDy=0;entryX=0;entryY=0.5;entryDx=0;entryDy=0;" edge="1" parent="WIyWlLk6GJQsqaUBKTNV-1" source="LoGF4QMkM_RMsMkj-VRh-42" target="LoGF4QMkM_RMsMkj-VRh-37">
          <mxGeometry relative="1" as="geometry" />
        </mxCell>
        <mxCell id="LoGF4QMkM_RMsMkj-VRh-42" value="2" style="strokeWidth=2;html=1;shape=parallelogram;whiteSpace=wrap;perimeter=parallelogramPerimeter;rounded=1;arcSize=12;size=0.23;" vertex="1" parent="WIyWlLk6GJQsqaUBKTNV-1">
          <mxGeometry x="780" y="237.5" width="100" height="55" as="geometry" />
        </mxCell>
        <mxCell id="LoGF4QMkM_RMsMkj-VRh-56" style="edgeStyle=orthogonalEdgeStyle;rounded=0;orthogonalLoop=1;jettySize=auto;html=1;exitX=1;exitY=0.5;exitDx=0;exitDy=0;entryX=0;entryY=0.5;entryDx=0;entryDy=0;" edge="1" parent="WIyWlLk6GJQsqaUBKTNV-1" source="LoGF4QMkM_RMsMkj-VRh-43" target="LoGF4QMkM_RMsMkj-VRh-38">
          <mxGeometry relative="1" as="geometry" />
        </mxCell>
        <mxCell id="LoGF4QMkM_RMsMkj-VRh-43" value="3" style="strokeWidth=2;html=1;shape=parallelogram;whiteSpace=wrap;perimeter=parallelogramPerimeter;rounded=1;arcSize=12;size=0.23;" vertex="1" parent="WIyWlLk6GJQsqaUBKTNV-1">
          <mxGeometry x="780" y="305" width="100" height="55" as="geometry" />
        </mxCell>
        <mxCell id="LoGF4QMkM_RMsMkj-VRh-57" style="edgeStyle=orthogonalEdgeStyle;rounded=0;orthogonalLoop=1;jettySize=auto;html=1;exitX=1;exitY=0.5;exitDx=0;exitDy=0;entryX=0;entryY=0.5;entryDx=0;entryDy=0;" edge="1" parent="WIyWlLk6GJQsqaUBKTNV-1" source="LoGF4QMkM_RMsMkj-VRh-44" target="LoGF4QMkM_RMsMkj-VRh-39">
          <mxGeometry relative="1" as="geometry" />
        </mxCell>
        <mxCell id="LoGF4QMkM_RMsMkj-VRh-44" value="4" style="strokeWidth=2;html=1;shape=parallelogram;whiteSpace=wrap;perimeter=parallelogramPerimeter;rounded=1;arcSize=12;size=0.23;" vertex="1" parent="WIyWlLk6GJQsqaUBKTNV-1">
          <mxGeometry x="780" y="375" width="100" height="55" as="geometry" />
        </mxCell>
        <mxCell id="LoGF4QMkM_RMsMkj-VRh-59" value="" style="edgeStyle=orthogonalEdgeStyle;rounded=0;orthogonalLoop=1;jettySize=auto;html=1;entryX=0;entryY=0.75;entryDx=0;entryDy=0;exitX=1;exitY=0.5;exitDx=0;exitDy=0;" edge="1" parent="WIyWlLk6GJQsqaUBKTNV-1" source="LoGF4QMkM_RMsMkj-VRh-11" target="LoGF4QMkM_RMsMkj-VRh-44">
          <mxGeometry relative="1" as="geometry">
            <mxPoint x="740" y="200" as="sourcePoint" />
            <mxPoint x="811" y="205" as="targetPoint" />
            <Array as="points">
              <mxPoint x="740" y="195" />
              <mxPoint x="740" y="415" />
            </Array>
          </mxGeometry>
        </mxCell>
        <mxCell id="LoGF4QMkM_RMsMkj-VRh-69" value="opsi" style="edgeLabel;html=1;align=center;verticalAlign=middle;resizable=0;points=[];" vertex="1" connectable="0" parent="LoGF4QMkM_RMsMkj-VRh-59">
          <mxGeometry x="-0.9159" y="-2" relative="1" as="geometry">
            <mxPoint as="offset" />
          </mxGeometry>
        </mxCell>
        <mxCell id="LoGF4QMkM_RMsMkj-VRh-62" value="" style="edgeStyle=segmentEdgeStyle;endArrow=classic;html=1;curved=0;rounded=0;endSize=8;startSize=8;" edge="1" parent="WIyWlLk6GJQsqaUBKTNV-1">
          <mxGeometry width="50" height="50" relative="1" as="geometry">
            <mxPoint x="740" y="264" as="sourcePoint" />
            <mxPoint x="790" y="264.41" as="targetPoint" />
          </mxGeometry>
        </mxCell>
        <mxCell id="LoGF4QMkM_RMsMkj-VRh-64" value="" style="edgeStyle=segmentEdgeStyle;endArrow=classic;html=1;curved=0;rounded=0;endSize=8;startSize=8;" edge="1" parent="WIyWlLk6GJQsqaUBKTNV-1">
          <mxGeometry width="50" height="50" relative="1" as="geometry">
            <mxPoint x="740" y="331.90999999999997" as="sourcePoint" />
            <mxPoint x="790" y="332.32000000000005" as="targetPoint" />
          </mxGeometry>
        </mxCell>
        <mxCell id="LoGF4QMkM_RMsMkj-VRh-86" value="" style="edgeStyle=orthogonalEdgeStyle;rounded=0;orthogonalLoop=1;jettySize=auto;html=1;" edge="1" parent="WIyWlLk6GJQsqaUBKTNV-1" source="LoGF4QMkM_RMsMkj-VRh-71" target="LoGF4QMkM_RMsMkj-VRh-85">
          <mxGeometry relative="1" as="geometry" />
        </mxCell>
        <mxCell id="LoGF4QMkM_RMsMkj-VRh-71" value="1" style="whiteSpace=wrap;html=1;shadow=0;fontFamily=Helvetica;fontSize=12;align=center;strokeWidth=2;spacing=6;spacingTop=-4;shape=parallelogram;perimeter=parallelogramPerimeter;rounded=1;arcSize=12;size=0.23;" vertex="1" parent="WIyWlLk6GJQsqaUBKTNV-1">
          <mxGeometry x="378" y="305" width="71" height="40" as="geometry" />
        </mxCell>
        <mxCell id="LoGF4QMkM_RMsMkj-VRh-93" value="" style="edgeStyle=orthogonalEdgeStyle;rounded=0;orthogonalLoop=1;jettySize=auto;html=1;" edge="1" parent="WIyWlLk6GJQsqaUBKTNV-1" source="LoGF4QMkM_RMsMkj-VRh-73" target="LoGF4QMkM_RMsMkj-VRh-89">
          <mxGeometry relative="1" as="geometry" />
        </mxCell>
        <mxCell id="LoGF4QMkM_RMsMkj-VRh-73" value="2" style="whiteSpace=wrap;html=1;shadow=0;fontFamily=Helvetica;fontSize=12;align=center;strokeWidth=2;spacing=6;spacingTop=-4;shape=parallelogram;perimeter=parallelogramPerimeter;rounded=1;arcSize=12;size=0.23;" vertex="1" parent="WIyWlLk6GJQsqaUBKTNV-1">
          <mxGeometry x="381" y="367.5" width="65.5" height="40" as="geometry" />
        </mxCell>
        <mxCell id="LoGF4QMkM_RMsMkj-VRh-104" style="edgeStyle=orthogonalEdgeStyle;rounded=0;orthogonalLoop=1;jettySize=auto;html=1;exitX=1;exitY=0.5;exitDx=0;exitDy=0;" edge="1" parent="WIyWlLk6GJQsqaUBKTNV-1" source="LoGF4QMkM_RMsMkj-VRh-85">
          <mxGeometry relative="1" as="geometry">
            <mxPoint x="590.3333333333335" y="389.9999999999999" as="targetPoint" />
            <Array as="points">
              <mxPoint x="610" y="325" />
              <mxPoint x="610" y="390" />
            </Array>
          </mxGeometry>
        </mxCell>
        <mxCell id="LoGF4QMkM_RMsMkj-VRh-85" value="Beli Item (Sepeda)" style="whiteSpace=wrap;html=1;shadow=0;strokeWidth=2;spacing=6;spacingTop=-4;rounded=1;arcSize=12;" vertex="1" parent="WIyWlLk6GJQsqaUBKTNV-1">
          <mxGeometry x="480" y="297.5" width="110" height="55" as="geometry" />
        </mxCell>
        <mxCell id="LoGF4QMkM_RMsMkj-VRh-100" value="" style="edgeStyle=orthogonalEdgeStyle;rounded=0;orthogonalLoop=1;jettySize=auto;html=1;" edge="1" parent="WIyWlLk6GJQsqaUBKTNV-1" source="LoGF4QMkM_RMsMkj-VRh-89">
          <mxGeometry relative="1" as="geometry">
            <mxPoint x="220" y="539.9999999999999" as="targetPoint" />
            <Array as="points">
              <mxPoint x="535" y="540" />
            </Array>
          </mxGeometry>
        </mxCell>
        <mxCell id="LoGF4QMkM_RMsMkj-VRh-89" value="Keranjang Belanja" style="whiteSpace=wrap;html=1;shadow=0;strokeWidth=2;spacing=6;spacingTop=-4;rounded=1;arcSize=12;" vertex="1" parent="WIyWlLk6GJQsqaUBKTNV-1">
          <mxGeometry x="480" y="357.5" width="110" height="60" as="geometry" />
        </mxCell>
        <mxCell id="LoGF4QMkM_RMsMkj-VRh-92" value="" style="edgeStyle=segmentEdgeStyle;endArrow=classic;html=1;curved=0;rounded=0;endSize=8;startSize=8;entryX=0;entryY=0.5;entryDx=0;entryDy=0;" edge="1" parent="WIyWlLk6GJQsqaUBKTNV-1">
          <mxGeometry width="50" height="50" relative="1" as="geometry">
            <mxPoint x="370" y="325" as="sourcePoint" />
            <mxPoint x="390.00250000000005" y="387.5000000000001" as="targetPoint" />
            <Array as="points">
              <mxPoint x="330" y="325" />
              <mxPoint x="352" y="325" />
              <mxPoint x="352" y="388" />
            </Array>
          </mxGeometry>
        </mxCell>
        <mxCell id="LoGF4QMkM_RMsMkj-VRh-108" value="Daftar Harga Sepeda" style="strokeWidth=2;html=1;shape=mxgraph.flowchart.display;whiteSpace=wrap;" vertex="1" parent="WIyWlLk6GJQsqaUBKTNV-1">
          <mxGeometry x="1280" y="235" width="100" height="60" as="geometry" />
        </mxCell>
        <mxCell id="LoGF4QMkM_RMsMkj-VRh-110" value="Isi Keranjang Belanja" style="strokeWidth=2;html=1;shape=mxgraph.flowchart.display;whiteSpace=wrap;" vertex="1" parent="WIyWlLk6GJQsqaUBKTNV-1">
          <mxGeometry x="480" y="450" width="100" height="60" as="geometry" />
        </mxCell>
      </root>
    </mxGraphModel>
  </diagram>
</mxfile>
